<svg xmlns="http://www.w3.org/2000/svg" version="1.1" xmlns:xlink="http://www.w3.org/1999/xlink" xmlns:svgjs="http://svgjs.dev/svgjs" width="2000" height="752" viewBox="0 0 2000 752"><g transform="matrix(1,0,0,1,-1.2121212121212466,-1.8022373516579364)"><svg viewBox="0 0 396 149" data-background-color="#000000" preserveAspectRatio="xMidYMid meet" height="752" width="2000" xmlns="http://www.w3.org/2000/svg" xmlns:xlink="http://www.w3.org/1999/xlink"><g id="tight-bounds" transform="matrix(1,0,0,1,0.2400000000000091,0.3570922412194619)"><svg viewBox="0 0 395.52 148.28580920567126" height="148.28580920567126" width="395.52"><g><svg viewBox="0 0 397.4975999999999 149.0272382516996" height="148.28580920567126" width="395.52"><g><rect width="397.4975999999999" height="4.263031940096184" x="0" y="76.48958452264188" fill="#ebebeb" opacity="1" stroke-width="0" stroke="transparent" fill-opacity="1" class="rect-yte-0" data-fill-palette-color="primary" rx="1%" id="yte-0" data-palette-color="#ebebeb"></rect></g><g><rect width="397.4975999999999" height="4.263031940096184" x="0" y="86.33250120108384" fill="#ebebeb" opacity="1" stroke-width="0" stroke="transparent" fill-opacity="1" class="rect-yte-1" data-fill-palette-color="primary" rx="1%" id="yte-1" data-palette-color="#ebebeb"></rect></g><g transform="matrix(1,0,0,1,0.9887999999999693,101.7553026178716)"><svg viewBox="0 0 395.52 47.271935633828" height="47.271935633828" width="395.52"><g id="textblocktransform"><svg viewBox="0 0 395.52 47.271935633828" height="47.271935633828" width="395.52" id="textblock"><g><svg viewBox="0 0 395.52 47.271935633828" height="47.271935633828" width="395.52"><g transform="matrix(1,0,0,1,0,0)"><svg width="395.52" viewBox="2.9 -37.1 411.21000000000004 49.151961786097004" height="47.271935633828" data-palette-color="#ebebeb"><path d="M15.85 0.6Q15.1 0.5 12.68 0.25 10.25 0 8.65 0L8.65 0Q7.1 0 5.28 0.25 3.45 0.5 2.9 0.6L2.9 0.6 3.2-1.7Q5.5-2.15 6.3-3.03 7.1-3.9 7.1-6L7.1-6 7.15-27Q7.15-28.6 6.78-29.15 6.4-29.7 5.3-29.7L5.3-29.7Q4.8-29.7 4.3-29.65 3.8-29.6 3.6-29.6L3.6-29.6 3.5-29.8 3.85-32Q4.4-31.95 5.95-31.9 7.5-31.85 9.1-31.85L9.1-31.85Q11.25-31.85 13.55-31.93 15.85-32 16.7-32.05L16.7-32.05Q21.5-32.05 25.25-30.18 29-28.3 31.08-24.9 33.15-21.5 33.15-17.1L33.15-17.1Q33.15-12.2 30.85-8.15 28.55-4.1 24.6-1.75 20.65 0.6 15.85 0.6L15.85 0.6ZM13.25-29.6Q12.2-29.6 11.85-29.38 11.5-29.15 11.45-28.5L11.45-28.5Q10.7-9.25 10.7-6.55L10.7-6.55Q10.7-4.65 11.23-3.7 11.75-2.75 13.08-2.35 14.4-1.95 17-1.95L17-1.95Q22.4-1.95 25.5-5.68 28.6-9.4 28.6-15.9L28.6-15.9Q28.6-22.5 24.63-26.05 20.65-29.6 13.25-29.6L13.25-29.6ZM47.45 0.6Q44.35 0.6 41.95-0.78 39.55-2.15 38.25-4.67 36.95-7.2 36.95-10.45L36.95-10.45Q36.95-13.8 38.47-16.75 40-19.7 42.55-21.45 45.1-23.2 48-23.2L48-23.2Q51.65-23.2 53.55-21.35 55.45-19.5 55.45-15.95L55.45-15.95Q55.45-14.5 55.15-13.5L55.15-13.5 54.5-12.9 40.7-12.9Q40.65-8.05 42.62-5.43 44.6-2.8 48.15-2.8L48.15-2.8Q50.95-2.8 54.25-4.35L54.25-4.35 54.55-4.25 55.1-2.8Q53.3-1.5 51.12-0.45 48.95 0.6 47.45 0.6L47.45 0.6ZM40.9-14.75L49.95-15.2Q50.7-15.3 50.95-15.55 51.2-15.8 51.2-16.55L51.2-16.55Q51.2-18.55 50.12-19.6 49.05-20.65 47.05-20.65L47.05-20.65Q44.7-20.65 43.02-19.05 41.35-17.45 40.9-14.75L40.9-14.75ZM69.84 0.6Q66.75 0.6 64.34-0.78 61.95-2.15 60.65-4.67 59.34-7.2 59.34-10.45L59.34-10.45Q59.34-13.8 60.87-16.75 62.4-19.7 64.95-21.45 67.5-23.2 70.4-23.2L70.4-23.2Q74.05-23.2 75.95-21.35 77.84-19.5 77.84-15.95L77.84-15.95Q77.84-14.5 77.55-13.5L77.55-13.5 76.9-12.9 63.09-12.9Q63.05-8.05 65.02-5.43 67-2.8 70.55-2.8L70.55-2.8Q73.34-2.8 76.65-4.35L76.65-4.35 76.95-4.25 77.5-2.8Q75.7-1.5 73.52-0.45 71.34 0.6 69.84 0.6L69.84 0.6ZM63.3-14.75L72.34-15.2Q73.09-15.3 73.34-15.55 73.59-15.8 73.59-16.55L73.59-16.55Q73.59-18.55 72.52-19.6 71.45-20.65 69.45-20.65L69.45-20.65Q67.09-20.65 65.42-19.05 63.75-17.45 63.3-14.75L63.3-14.75ZM82.19 11.85L82.44 9.9Q83.54 9.75 84.07 9.45 84.59 9.15 84.79 8.45 84.99 7.75 84.99 6.3L84.99 6.3Q84.99 4.2 85.04 2.7L85.04 2.7 85.09-2 85.09-16.9Q85.09-18.6 84.54-19.28 83.99-19.95 82.64-19.95L82.64-19.95 82.09-19.95 81.94-20.15 82.09-21.8Q84.24-22.15 86.37-22.63 88.49-23.1 89.09-23.25L89.09-23.25 89.39-22.85Q89.34-22.6 89.17-21.78 88.99-20.95 88.89-20.15L88.89-20.15 89.09-19.8Q93.79-23.05 94.89-23.05L94.89-23.05Q97.74-23.05 99.94-21.73 102.14-20.4 103.34-18 104.54-15.6 104.54-12.5L104.54-12.5Q104.54-8.95 102.84-5.95 101.14-2.95 98.29-1.18 95.44 0.6 92.09 0.6L92.09 0.6Q90.99 0.6 89.92 0.53 88.84 0.45 88.44 0.4L88.44 0.4 88.49 5.55Q88.49 7.85 88.97 8.68 89.44 9.5 90.84 9.5L90.84 9.5 92.54 9.45 92.64 9.6 92.24 11.5 87.49 11.5Q85.69 11.5 84.17 11.65 82.64 11.8 82.19 11.85L82.19 11.85ZM93.49-2.15Q96.84-2.15 98.77-4.42 100.69-6.7 100.69-10.65L100.69-10.65Q100.69-13.15 99.82-15.2 98.94-17.25 97.42-18.45 95.89-19.65 94.09-19.65L94.09-19.65Q93.09-19.65 91.64-18.98 90.19-18.3 88.89-17.2L88.89-17.2Q88.49-10.65 88.49-3.1L88.49-3.1Q89.49-2.7 90.87-2.43 92.24-2.15 93.49-2.15L93.49-2.15ZM108.04-1.75Q109.34-1.95 109.89-2.48 110.44-3 110.57-3.85 110.69-4.7 110.69-6.75L110.69-6.75 110.69-31.3Q110.69-34 108.84-34L108.84-34Q108.49-34 108.09-33.93 107.69-33.85 107.59-33.8L107.59-33.8Q107.59-34.1 107.69-34.7L107.69-34.7 107.79-35.65Q109.94-35.95 112.24-36.45 114.54-36.95 115.19-37.1L115.19-37.1 115.49-36.45Q114.94-35.6 114.52-25.85 114.09-16.1 114.09-4.9L114.09-4.9Q114.09-3.35 114.49-2.73 114.89-2.1 115.89-2.1L115.89-2.1Q116.44-2.1 116.94-2.15 117.44-2.2 117.64-2.2L117.64-2.2 117.74-2 117.29 0.15Q116.84 0.1 115.54 0.05 114.24 0 112.74 0L112.74 0Q111.44 0 109.87 0.13 108.29 0.25 107.79 0.3L107.79 0.3 108.04-1.75ZM115.34-11.7L115.44-12.5 121.39-18.2Q122.09-18.85 122.34-19.23 122.59-19.6 122.59-19.95L122.59-19.95Q122.59-20.5 121.94-20.75 121.29-21 119.84-21L119.84-21 119.69-21.25 120.14-22.7Q120.69-22.7 122.17-22.65 123.64-22.6 125.19-22.6L125.19-22.6Q126.39-22.6 127.94-22.73 129.49-22.85 129.94-22.9L129.94-22.9 130.09-22.65 129.69-21.1Q127.64-20.5 125.57-18.8 123.49-17.1 120.59-14.2L120.59-14.2Q120.59-14.2 119.04-12.65L119.04-12.65 124.29-5.9Q125.99-3.7 127.39-2.75 128.79-1.8 130.34-1.8L130.34-1.8 130.49-1.55 130.19-0.1Q129.74 0.05 128.34 0.38 126.94 0.7 126.49 0.7L126.49 0.7Q125.74 0.7 124.74 0.2L124.74 0.2Q123.99-0.2 123.22-1.03 122.44-1.85 121.24-3.55L121.24-3.55 115.34-11.7ZM135.69-17.35Q135.69-20.05 133.84-20.05L133.84-20.05Q133.49-20.05 133.09-19.98 132.69-19.9 132.59-19.85L132.59-19.85 132.79-21.7Q134.74-22 136.99-22.53 139.24-23.05 139.94-23.2L139.94-23.2 140.24-22.6Q139.74-21.3 139.34-16.7 138.94-12.1 138.94-7.75L138.94-7.75Q138.94-2.85 142.94-2.85L142.94-2.85Q144.44-2.85 145.74-3.58 147.04-4.3 148.99-5.7L148.99-5.7 148.99-17.3Q148.99-18.8 148.44-19.4 147.89-20 146.49-20L146.49-20 145.29-19.95 145.49-21.75Q147.69-22.05 150.09-22.55 152.49-23.05 153.19-23.2L153.19-23.2 153.49-22.6Q153.04-21.45 152.71-16.35 152.39-11.25 152.39-5.25L152.39-5.25Q152.39-4.15 152.94-3.55 153.49-2.95 154.44-2.95L154.44-2.95Q155.14-2.95 155.81-3.23 156.49-3.5 156.91-3.8 157.34-4.1 157.44-4.2L157.44-4.2 158.14-3.4Q157.94-3.1 157.21-2.15 156.49-1.2 155.51-0.3 154.54 0.6 153.79 0.6L153.79 0.6Q149.74 0.6 149.34-3.45L149.34-3.45 149.09-3.55Q146.69-1.7 144.76-0.55 142.84 0.6 142.14 0.6L142.14 0.6Q138.94 0.6 137.21-0.9 135.49-2.4 135.49-5.2L135.49-5.2 135.69-17.35ZM174.49-1.45Q175.99-1.85 176.64-2.63 177.29-3.4 177.29-4.7L177.29-4.7 177.49-14.6Q177.49-17.1 176.41-18.45 175.34-19.8 173.34-19.8L173.34-19.8Q171.74-19.8 170.09-18.98 168.44-18.15 167.19-17.2L167.19-17.2Q166.74-6.85 166.74-4.9L166.74-4.9Q166.74-3.35 167.14-2.73 167.54-2.1 168.54-2.1L168.54-2.1Q169.09-2.1 169.59-2.15 170.09-2.2 170.29-2.2L170.29-2.2 170.39-2 169.94 0.15Q169.49 0.1 168.19 0.05 166.89 0 165.39 0L165.39 0Q163.74 0 162.34 0.05 160.94 0.1 160.44 0.1L160.44 0.1 160.74-1.95Q162.19-2.1 162.76-2.7 163.34-3.3 163.34-4.7L163.34-4.7 163.34-16.9Q163.34-18.6 162.79-19.28 162.24-19.95 160.89-19.95L160.89-19.95 160.34-19.95 160.19-20.15 160.34-21.8Q162.49-22.15 164.61-22.63 166.74-23.1 167.34-23.25L167.34-23.25 167.64-22.85Q167.54-22.55 167.34-21.58 167.14-20.6 167.09-19.55L167.09-19.55 167.19-19.4Q172.79-23.2 174.54-23.2L174.54-23.2Q176.94-23.2 178.59-22.18 180.24-21.15 180.94-19.25L180.94-19.25Q182.74-20.55 184.99-21.88 187.24-23.2 188.49-23.2L188.49-23.2Q191.64-23.2 193.49-21.45 195.34-19.7 195.34-16.75L195.34-16.75Q195.34-16.25 195.04-12.15L195.04-12.15Q194.64-6.95 194.64-4.9L194.64-4.9Q194.64-3.35 195.04-2.73 195.44-2.1 196.44-2.1L196.44-2.1Q196.99-2.1 197.49-2.15 197.99-2.2 198.19-2.2L198.19-2.2 198.29-2 197.84 0.15Q197.39 0.1 196.09 0.05 194.79 0 193.29 0L193.29 0Q191.99 0 190.41 0.13 188.84 0.25 188.34 0.3L188.34 0.3 188.59-1.75Q190.04-2 190.64-2.65 191.24-3.3 191.24-4.7L191.24-4.7 191.44-14.6Q191.44-17.1 190.36-18.45 189.29-19.8 187.29-19.8L187.29-19.8Q184.69-19.8 181.24-17.3L181.24-17.3 180.69-4.9Q180.69-3.45 181.09-2.78 181.49-2.1 182.44-2.1L182.44-2.1Q182.99-2.1 183.49-2.15 183.99-2.2 184.19-2.2L184.19-2.2 184.29-2 183.89 0.15Q183.44 0.1 182.19 0.05 180.94 0 179.44 0L179.44 0Q178.14 0 176.46 0.25 174.79 0.5 174.29 0.6L174.29 0.6 174.49-1.45ZM218.43 0.6Q214.38 0.6 213.98-3.45L213.98-3.45 213.78-3.5Q211.98-1.7 210.51-0.65 209.03 0.4 208.28 0.4L208.28 0.4Q205.48 0.4 203.68-1.35 201.88-3.1 201.88-5.8L201.88-5.8Q201.88-7.25 202.61-8.35 203.33-9.45 204.53-9.8L204.53-9.8 214.03-12.4 214.08-14.6Q214.08-17.1 212.93-18.5 211.78-19.9 209.68-19.9L209.68-19.9Q208.28-19.9 206.73-19.25 205.18-18.6 203.68-17.4L203.68-17.4 203.43-17.55 202.83-19.7Q205.18-21.05 207.56-22.13 209.93-23.2 210.98-23.2L210.98-23.2Q214.23-23.2 216.08-21.5 217.93-19.8 217.93-16.75L217.93-16.75Q217.93-15.65 217.58-12.25L217.58-12.25Q217.03-6.75 217.03-5.25L217.03-5.25Q217.03-4.15 217.58-3.55 218.13-2.95 219.08-2.95L219.08-2.95Q219.88-2.95 220.73-3.33 221.58-3.7 222.08-4.2L222.08-4.2 222.78-3.4Q222.03-2.15 220.86-0.98 219.68 0.2 218.43 0.6L218.43 0.6ZM209.13-3Q210.08-3 211.36-3.68 212.63-4.35 213.68-5.4L213.68-5.4 213.93-10.5 207.13-8.45Q205.68-8 205.68-6.35L205.68-6.35Q205.68-4.9 206.66-3.95 207.63-3 209.13-3L209.13-3ZM226.08-1.8Q227.58-1.95 228.08-2.78 228.58-3.6 228.58-5.95L228.58-5.95 228.58-16.95Q228.58-18.6 228.13-19.3 227.68-20 226.68-20L226.68-20Q226.28-20 226.01-19.95 225.73-19.9 225.63-19.85L225.63-19.85 225.38-20.2 225.53-21.75Q227.43-22.1 229.56-22.6 231.68-23.1 232.28-23.25L232.28-23.25 232.63-22.95Q232.53-22.5 232.33-20.88 232.13-19.25 232.18-17.8L232.18-17.8 232.38-17.65Q233.88-20 235.91-21.5 237.93-23 239.43-23L239.43-23Q240.13-23 240.51-22.93 240.88-22.85 240.98-22.8L240.98-22.8 241.13-22.6Q241.03-21.9 240.71-19.63 240.38-17.35 240.33-15.45L240.33-15.45 238.38-15.3Q238.38-17.35 238.11-18.03 237.83-18.7 237.03-18.7L237.03-18.7Q235.93-18.7 234.68-17.78 233.43-16.85 232.38-15.3L232.38-15.3Q232.33-13.85 232.18-10.5 232.03-7.15 231.98-5.1L231.98-5.1Q231.98-3.4 232.48-2.8 232.98-2.2 234.38-2.2L234.38-2.2Q235.03-2.2 235.68-2.25 236.33-2.3 236.58-2.3L236.58-2.3 236.63-2.1 236.18 0.1Q235.68 0.1 234.18 0.05 232.68 0 231.08 0L231.08 0Q229.23 0 227.73 0.08 226.23 0.15 225.83 0.2L225.83 0.2 226.08-1.8ZM255.33 0.4L255.68-1.9Q257.88-2.3 258.58-3.08 259.28-3.85 259.28-6L259.28-6 259.33-27Q259.33-28.6 258.95-29.15 258.58-29.7 257.48-29.7L257.48-29.7Q256.98-29.7 256.48-29.65 255.98-29.6 255.78-29.6L255.78-29.6 255.68-29.8 256.03-32Q256.63-31.95 258.28-31.9 259.93-31.85 261.58-31.85L261.58-31.85Q263.13-31.85 265.1-31.93 267.08-32 267.88-32.05L267.88-32.05Q273.08-32.05 275.83-29.75 278.58-27.45 278.58-23.15L278.58-23.15Q278.58-20.35 276.95-17.82 275.33-15.3 272.68-13.75 270.03-12.2 267.13-12.2L267.13-12.2 262.93-12.2 262.83-7.3Q262.83-4.9 262.98-3.88 263.13-2.85 263.55-2.53 263.98-2.2 265.03-2.2L265.03-2.2Q265.88-2.2 266.65-2.25 267.43-2.3 267.73-2.35L267.73-2.35 267.83-2.15 267.38 0.15Q266.88 0.1 265.55 0.05 264.23 0 262.78 0L262.78 0Q260.78 0 258.1 0.15 255.43 0.3 255.33 0.4L255.33 0.4ZM268.33-14.4Q271.33-14.9 272.85-16.85 274.38-18.8 274.38-22.2L274.38-22.2Q274.38-26.05 272.1-27.83 269.83-29.6 264.98-29.6L264.98-29.6Q264.08-29.6 263.88-29.5 263.68-29.4 263.63-28.9L263.63-28.9Q263.18-22.55 263.03-15.15L263.03-15.15 268.33-14.4ZM297.32 0.6Q293.27 0.6 292.87-3.45L292.87-3.45 292.67-3.5Q290.87-1.7 289.4-0.65 287.92 0.4 287.17 0.4L287.17 0.4Q284.37 0.4 282.57-1.35 280.77-3.1 280.77-5.8L280.77-5.8Q280.77-7.25 281.5-8.35 282.22-9.45 283.42-9.8L283.42-9.8 292.92-12.4 292.97-14.6Q292.97-17.1 291.82-18.5 290.67-19.9 288.57-19.9L288.57-19.9Q287.17-19.9 285.62-19.25 284.07-18.6 282.57-17.4L282.57-17.4 282.32-17.55 281.72-19.7Q284.07-21.05 286.45-22.13 288.82-23.2 289.87-23.2L289.87-23.2Q293.12-23.2 294.97-21.5 296.82-19.8 296.82-16.75L296.82-16.75Q296.82-15.65 296.47-12.25L296.47-12.25Q295.92-6.75 295.92-5.25L295.92-5.25Q295.92-4.15 296.47-3.55 297.02-2.95 297.97-2.95L297.97-2.95Q298.77-2.95 299.62-3.33 300.47-3.7 300.97-4.2L300.97-4.2 301.67-3.4Q300.92-2.15 299.75-0.98 298.57 0.2 297.32 0.6L297.32 0.6ZM288.02-3Q288.97-3 290.25-3.68 291.52-4.35 292.57-5.4L292.57-5.4 292.82-10.5 286.02-8.45Q284.57-8 284.57-6.35L284.57-6.35Q284.57-4.9 285.55-3.95 286.52-3 288.02-3L288.02-3ZM304.97-1.8Q306.47-1.95 306.97-2.78 307.47-3.6 307.47-5.95L307.47-5.95 307.47-16.95Q307.47-18.6 307.02-19.3 306.57-20 305.57-20L305.57-20Q305.17-20 304.9-19.95 304.62-19.9 304.52-19.85L304.52-19.85 304.27-20.2 304.42-21.75Q306.32-22.1 308.45-22.6 310.57-23.1 311.17-23.25L311.17-23.25 311.52-22.95Q311.42-22.5 311.22-20.88 311.02-19.25 311.07-17.8L311.07-17.8 311.27-17.65Q312.77-20 314.8-21.5 316.82-23 318.32-23L318.32-23Q319.02-23 319.4-22.93 319.77-22.85 319.87-22.8L319.87-22.8 320.02-22.6Q319.92-21.9 319.6-19.63 319.27-17.35 319.22-15.45L319.22-15.45 317.27-15.3Q317.27-17.35 317-18.03 316.72-18.7 315.92-18.7L315.92-18.7Q314.82-18.7 313.57-17.78 312.32-16.85 311.27-15.3L311.27-15.3Q311.22-13.85 311.07-10.5 310.92-7.15 310.87-5.1L310.87-5.1Q310.87-3.4 311.37-2.8 311.87-2.2 313.27-2.2L313.27-2.2Q313.92-2.2 314.57-2.25 315.22-2.3 315.47-2.3L315.47-2.3 315.52-2.1 315.07 0.1Q314.57 0.1 313.07 0.05 311.57 0 309.97 0L309.97 0Q308.12 0 306.62 0.08 305.12 0.15 304.72 0.2L304.72 0.2 304.97-1.8ZM332.97 0.6Q329.87 0.6 327.47-0.78 325.07-2.15 323.77-4.67 322.47-7.2 322.47-10.45L322.47-10.45Q322.47-13.8 323.99-16.75 325.52-19.7 328.07-21.45 330.62-23.2 333.52-23.2L333.52-23.2Q337.17-23.2 339.07-21.35 340.97-19.5 340.97-15.95L340.97-15.95Q340.97-14.5 340.67-13.5L340.67-13.5 340.02-12.9 326.22-12.9Q326.17-8.05 328.14-5.43 330.12-2.8 333.67-2.8L333.67-2.8Q336.47-2.8 339.77-4.35L339.77-4.35 340.07-4.25 340.62-2.8Q338.82-1.5 336.64-0.45 334.47 0.6 332.97 0.6L332.97 0.6ZM326.42-14.75L335.47-15.2Q336.22-15.3 336.47-15.55 336.72-15.8 336.72-16.55L336.72-16.55Q336.72-18.55 335.64-19.6 334.57-20.65 332.57-20.65L332.57-20.65Q330.22-20.65 328.54-19.05 326.87-17.45 326.42-14.75L326.42-14.75ZM349.12-30.1Q348.02-30.1 347.34-30.8 346.67-31.5 346.67-32.65L346.67-32.65Q346.67-33.9 347.52-34.75 348.37-35.6 349.62-35.6L349.62-35.6Q350.67-35.6 351.37-34.88 352.07-34.15 352.07-33.05L352.07-33.05Q352.07-31.8 351.22-30.95 350.37-30.1 349.12-30.1L349.12-30.1ZM344.72 12.05L343.82 11.1 343.92 10.7Q346.07 8.55 346.84 5.9 347.62 3.25 347.62-1.9L347.62-1.9 347.62-17.4Q347.62-18.95 347.19-19.53 346.77-20.1 345.62-20.1L345.62-20.1Q345.17-20.1 344.79-20.05 344.42-20 344.27-19.95L344.27-19.95 344.47-21.8Q346.37-22.05 348.67-22.55 350.97-23.05 351.67-23.2L351.67-23.2 351.92-22.6Q351.07-21.15 351.07 0.7L351.07 0.7Q351.07 4.3 349.42 7.25 347.77 10.2 344.72 12.05L344.72 12.05ZM357.76 0.6L357.96-1.45Q359.46-1.85 360.11-2.63 360.76-3.4 360.76-4.7L360.76-4.7 360.76-17.4Q360.76-20.1 358.91-20.1L358.91-20.1Q358.56-20.1 358.16-20.03 357.76-19.95 357.66-19.9L357.66-19.9 357.86-21.75Q359.96-22.05 362.19-22.55 364.41-23.05 365.06-23.2L365.06-23.2 365.31-22.6Q364.86-21.55 364.51-16.18 364.16-10.8 364.16-4.9L364.16-4.9Q364.16-3.45 364.56-2.78 364.96-2.1 365.91-2.1L365.91-2.1Q366.46-2.1 366.96-2.15 367.46-2.2 367.66-2.2L367.66-2.2 367.76-2 367.36 0.15Q366.91 0.1 365.66 0.05 364.41 0 362.91 0L362.91 0Q361.61 0 359.94 0.25 358.26 0.5 357.76 0.6L357.76 0.6ZM362.16-29.1Q361.01-29.1 360.36-29.85 359.71-30.6 359.71-31.65L359.71-31.65Q359.71-32.85 360.56-33.73 361.41-34.6 362.66-34.6L362.66-34.6Q363.81-34.6 364.46-33.85 365.11-33.1 365.11-32.05L365.11-32.05Q365.11-30.85 364.26-29.98 363.41-29.1 362.16-29.1L362.16-29.1ZM371.46 12.05Q371.06 12.05 370.16 10.88 369.26 9.7 369.26 9.2L369.26 9.2 369.51 8.85Q372.31 8.85 374.74 6.53 377.16 4.2 378.91 0L378.91 0Q375.06-12.2 372.71-18.4L372.71-18.4Q372.26-19.65 371.44-20.2 370.61-20.75 369.31-20.8L369.31-20.8 369.21-21 369.51-22.65 373.66-22.6Q375.51-22.6 377.34-22.75 379.16-22.9 379.66-22.95L379.66-22.95 379.76-22.7 379.46-21.15Q377.76-21.1 377.19-20.83 376.61-20.55 376.61-19.85L376.61-19.85Q376.61-19.05 377.59-15.7 378.56-12.35 379.61-9.03 380.66-5.7 381.01-4.7L381.01-4.7 381.21-4.7Q386.96-18.45 386.96-19.65L386.96-19.65Q386.96-20.95 385.06-20.95L385.06-20.95 382.76-20.95 382.66-21.15 382.96-22.8Q383.41-22.75 384.96-22.68 386.51-22.6 388.06-22.6L388.06-22.6 392.31-22.65 391.96-20.8Q390.86-20.6 390.29-20.03 389.71-19.45 389.16-17.95L389.16-17.95 382.81-2.75Q380.21 3.55 378.56 6.6 376.91 9.65 375.31 10.88 373.71 12.1 371.46 12.05L371.46 12.05ZM409.76 0.6Q405.71 0.6 405.31-3.45L405.31-3.45 405.11-3.5Q403.31-1.7 401.83-0.65 400.36 0.4 399.61 0.4L399.61 0.4Q396.81 0.4 395.01-1.35 393.21-3.1 393.21-5.8L393.21-5.8Q393.21-7.25 393.93-8.35 394.66-9.45 395.86-9.8L395.86-9.8 405.36-12.4 405.41-14.6Q405.41-17.1 404.26-18.5 403.11-19.9 401.01-19.9L401.01-19.9Q399.61-19.9 398.06-19.25 396.51-18.6 395.01-17.4L395.01-17.4 394.76-17.55 394.16-19.7Q396.51-21.05 398.88-22.13 401.26-23.2 402.31-23.2L402.31-23.2Q405.56-23.2 407.41-21.5 409.26-19.8 409.26-16.75L409.26-16.75Q409.26-15.65 408.91-12.25L408.91-12.25Q408.36-6.75 408.36-5.25L408.36-5.25Q408.36-4.15 408.91-3.55 409.46-2.95 410.41-2.95L410.41-2.95Q411.21-2.95 412.06-3.33 412.91-3.7 413.41-4.2L413.41-4.2 414.11-3.4Q413.36-2.15 412.18-0.98 411.01 0.2 409.76 0.6L409.76 0.6ZM400.46-3Q401.41-3 402.68-3.68 403.96-4.35 405.01-5.4L405.01-5.4 405.26-10.5 398.46-8.45Q397.01-8 397.01-6.35L397.01-6.35Q397.01-4.9 397.98-3.95 398.96-3 400.46-3L400.46-3Z" opacity="1" transform="matrix(1,0,0,1,0,0)" fill="#ebebeb" class="wordmark-text-0" data-fill-palette-color="primary" id="text-0"></path></svg></g></svg></g></svg></g></svg></g><g transform="matrix(1,0,0,1,164.45057148050674,0)"><svg viewBox="0 0 68.59645703898643 65.3298150459503" height="65.3298150459503" width="68.59645703898643"><g><svg xmlns:x="http://ns.adobe.com/Extensibility/1.0/" xmlns:i="http://ns.adobe.com/AdobeIllustrator/10.0/" xmlns:graph="http://ns.adobe.com/Graphs/1.0/" xmlns="http://www.w3.org/2000/svg" xmlns:xlink="http://www.w3.org/1999/xlink" version="1.1" x="0" y="0" viewBox="0.4897819238035984 2.9 98.9102180761964 94.19999999999999" enable-background="new 0 0 100 100" xml:space="preserve" height="65.3298150459503" width="68.59645703898643" class="icon-icon-0" data-fill-palette-color="accent" id="icon-0"><path d="M50 2.9C45.9 2.9 42 3.7 38.2 5.3 22.5 11.7 15 29.8 21.5 45.5 26.3 57.1 37.5 64.6 50 64.6 54.1 64.6 58 63.8 61.8 62.2 77.5 55.7 85 37.7 78.5 21.9 73.7 10.4 62.5 2.9 50 2.9M25.5 42.1C23.6 36.7 23.6 30.9 25.5 25.4H32.1C31.6 28.1 31.3 31 31.3 33.7 31.3 36.3 31.6 39.1 32.3 42H25.5zM36.3 33.7C36.3 30.8 36.6 28 37.2 25.4H47.5V42.1H37.4C36.7 39.3 36.3 36.4 36.3 33.7M52.5 9.2C56 10.6 59.2 14.9 61.3 20.4H52.5zM47.5 9.2V20.4H38.7C40.8 14.9 44 10.6 47.5 9.2M47.5 47.1V58.2C44.2 56.7 41.1 52.3 39 47.1zM52.5 58.2V47.1H61C58.9 52.3 55.8 56.7 52.5 58.2M52.5 42.1V25.4H62.8C63.4 28.1 63.7 30.9 63.7 33.7 63.7 36.4 63.3 39.2 62.6 42H52.5zM67.9 25.4H74.5C76.4 31 76.3 36.8 74.5 42.1H67.7C68.4 39.2 68.7 36.3 68.7 33.8 68.7 31 68.4 28.1 67.9 25.4M72.2 20.4H66.6C65.5 16.8 63.9 13.5 61.9 10.8 66.1 13 69.7 16.3 72.2 20.4M38.1 10.8C36.2 13.5 34.6 16.8 33.4 20.4H27.9C30.3 16.3 33.8 13 38.1 10.8M27.8 47.1H33.7C35 50.8 36.7 54.3 38.9 57.2 34.4 55 30.5 51.5 27.8 47.1M61.1 57.1C63.2 54.2 65 50.7 66.2 47.1H72.1C69.6 51.3 65.8 54.9 61.1 57.1M9.7 97.1C12.4 97.1 15 95.9 16.8 93.8 17.6 92.8 18.2 91.7 18.6 90.4H41.2C42.3 94.3 45.8 97.1 50 97.1S57.7 94.3 58.8 90.4H81.4C82.5 94.3 86 97.1 90.2 97.1 95.3 97.1 99.4 93 99.4 87.9S95.3 78.7 90.2 78.7C86 78.7 82.5 81.5 81.4 85.4H58.8C57.9 82.3 55.5 79.9 52.5 79.1V72.2C52.5 70.8 51.4 69.7 50 69.7S47.5 70.8 47.5 72.2V79.1C44.4 80 42 82.4 41.2 85.4H18.5C17.6 82.1 14.8 79.5 11.5 78.9S4.8 79.5 2.6 82.1C0.8 84.2 0.1 87 0.7 89.7 1.4 93.3 4.3 96.3 7.9 96.9 8.5 97.1 9.1 97.1 9.7 97.1M90.3 83.7C92.6 83.7 94.5 85.6 94.5 87.9S92.6 92.1 90.3 92.1C88.1 92.1 86.3 90.4 86.1 88.2V87.6C86.3 85.5 88.1 83.7 90.3 83.7M50 83.7C52.3 83.7 54.2 85.6 54.2 87.9S52.3 92.1 50 92.1 45.8 90.2 45.8 87.9 47.7 83.7 50 83.7M5.6 88.8C5.4 87.5 5.7 86.3 6.5 85.3S8.5 83.8 9.7 83.8C10 83.8 10.3 83.8 10.5 83.9 12.1 84.2 13.5 85.5 13.8 87.2 14 88.5 13.7 89.7 12.9 90.7 11.9 91.9 10.4 92.4 8.8 92.1 7.2 91.7 5.9 90.4 5.6 88.8" fill="#f4f012" data-fill-palette-color="accent"></path></svg><g></g></g></svg></g><g></g></svg></g><defs></defs></svg><rect width="395.52" height="148.28580920567126" fill="none" stroke="none" visibility="hidden"></rect></g></svg></g></svg>