<svg xmlns="http://www.w3.org/2000/svg" version="1.1" xmlns:xlink="http://www.w3.org/1999/xlink" xmlns:svgjs="http://svgjs.dev/svgjs" width="2000" height="722" viewBox="0 0 2000 722"><g transform="matrix(1,0,0,1,-1.2121212121212466,-0.018191051137932845)"><svg viewBox="0 0 396 143" data-background-color="#fdfdfd" preserveAspectRatio="xMidYMid meet" height="722" width="2000" xmlns="http://www.w3.org/2000/svg" xmlns:xlink="http://www.w3.org/1999/xlink"><g id="tight-bounds" transform="matrix(1,0,0,1,0.2400000000000091,0.0036029367212222496)"><svg viewBox="0 0 395.52 142.99279412655753" height="142.99279412655753" width="395.52"><g><svg viewBox="0 0 395.52 142.99279412655753" height="142.99279412655753" width="395.52"><g transform="matrix(1,0,0,1,0,88.37528335660375)"><svg viewBox="0 0 395.52 54.61751076995379" height="54.61751076995379" width="395.52"><g id="textblocktransform"><svg viewBox="0 0 395.52 54.61751076995379" height="54.61751076995379" width="395.52" id="textblock"><g><svg viewBox="0 0 395.52 54.61751076995379" height="54.61751076995379" width="395.52"><g transform="matrix(1,0,0,1,0,0)"><svg width="395.52" viewBox="2.25 -34.86 311.65 43.04" height="54.61751076995379" data-palette-color="#046d00"><path d="M10.79 0L10.79 0 2.25 0 2.25-34.86 10.91-34.86Q15.45-34.86 17.49-33.4 19.53-31.93 19.6-28.54L19.6-28.54Q19.73-24.58 19.76-21.02 19.8-17.46 19.76-13.89 19.73-10.33 19.6-6.35L19.6-6.35Q19.53-2.95 17.48-1.48 15.43 0 10.79 0ZM10.91-31.74L5.64-31.74 5.64-3.13 10.79-3.13Q13.65-3.13 14.92-3.83 16.19-4.54 16.21-5.98L16.21-5.98Q16.58-17.43 16.21-28.93L16.21-28.93Q16.19-30.37 14.93-31.05 13.67-31.74 10.91-31.74L10.91-31.74ZM31.35 0.29L31.35 0.29Q27.32 0.29 25.6-0.98 23.87-2.25 23.75-5.13L23.75-5.13Q23.65-6.93 23.62-9.38 23.58-11.82 23.62-14.28 23.65-16.75 23.75-18.58L23.75-18.58Q23.87-21.53 25.64-22.8 27.41-24.07 31.35-24.07L31.35-24.07Q35.06-24.07 36.72-22.83 38.38-21.58 38.55-18.73L38.55-18.73Q38.6-17.87 38.64-15.75 38.69-13.62 38.5-11.23L38.5-11.23 26.8-11.23Q26.8-9.69 26.83-8.11 26.85-6.52 26.93-4.81L26.93-4.81Q26.95-3.47 27.95-2.95 28.95-2.44 31.25-2.44L31.25-2.44Q33.52-2.44 34.45-2.95 35.37-3.47 35.47-4.81L35.47-4.81Q35.54-6.15 35.47-8.47L35.47-8.47 38.5-8.47Q38.62-7.76 38.61-6.82 38.6-5.88 38.55-5.13L38.55-5.13Q38.38-2.25 36.8-0.98 35.23 0.29 31.35 0.29ZM26.8-13.82L26.8-13.82 35.52-13.82Q35.57-15.48 35.57-16.99 35.57-18.51 35.47-19.07L35.47-19.07Q35.37-20.29 34.42-20.81 33.47-21.34 31.35-21.34L31.35-21.34Q28.98-21.34 27.96-20.81 26.95-20.29 26.93-19.07L26.93-19.07Q26.85-17.65 26.82-16.36 26.78-15.06 26.8-13.82ZM50 0.29L50 0.29Q45.97 0.29 44.25-0.98 42.52-2.25 42.4-5.13L42.4-5.13Q42.3-6.93 42.27-9.38 42.23-11.82 42.27-14.28 42.3-16.75 42.4-18.58L42.4-18.58Q42.52-21.53 44.29-22.8 46.06-24.07 50-24.07L50-24.07Q53.71-24.07 55.37-22.83 57.03-21.58 57.2-18.73L57.2-18.73Q57.25-17.87 57.29-15.75 57.34-13.62 57.15-11.23L57.15-11.23 45.45-11.23Q45.45-9.69 45.48-8.11 45.5-6.52 45.58-4.81L45.58-4.81Q45.6-3.47 46.6-2.95 47.6-2.44 49.9-2.44L49.9-2.44Q52.17-2.44 53.1-2.95 54.02-3.47 54.12-4.81L54.12-4.81Q54.19-6.15 54.12-8.47L54.12-8.47 57.15-8.47Q57.27-7.76 57.26-6.82 57.25-5.88 57.2-5.13L57.2-5.13Q57.03-2.25 55.45-0.98 53.88 0.29 50 0.29ZM45.45-13.82L45.45-13.82 54.17-13.82Q54.22-15.48 54.22-16.99 54.22-18.51 54.12-19.07L54.12-19.07Q54.02-20.29 53.07-20.81 52.12-21.34 50-21.34L50-21.34Q47.63-21.34 46.61-20.81 45.6-20.29 45.58-19.07L45.58-19.07Q45.5-17.65 45.47-16.36 45.43-15.06 45.45-13.82ZM64.45-2.25L64.45 7.91 61.3 7.91 61.3-23.75 64.45-23.75 64.45-21.53 65.13-21.53Q65.96-22.83 67.12-23.45 68.28-24.07 70.31-24.07L70.31-24.07Q73.09-24.07 74.42-22.86 75.75-21.66 75.82-18.82L75.82-18.82Q75.9-17.58 75.92-15.81 75.94-14.04 75.94-12.07 75.94-10.11 75.92-8.25 75.9-6.4 75.82-4.96L75.82-4.96Q75.75-2.15 74.36-0.93 72.97 0.29 70.18 0.29L70.18 0.29Q68.35 0.29 67.18-0.31 66.01-0.9 65.13-2.25L65.13-2.25 64.45-2.25ZM69.3-2.37L69.3-2.37Q72.6-2.37 72.7-4.69L72.7-4.69Q72.89-8.47 72.86-12.16 72.82-15.84 72.7-19.09L72.7-19.09Q72.65-20.31 71.92-20.86 71.18-21.41 69.45-21.41L69.45-21.41Q65.72-21.41 64.45-19.19L64.45-19.19 64.45-4.59Q65.1-3.39 66.24-2.88 67.38-2.37 69.3-2.37ZM83.19-7.89L83.19 0 80.14 0 80.14-31.69 83.14-31.69 83.14-23.88 82.88-13.53 83.71-13.53 86.07-18.14 89.74-23.75 93.06-23.75 87-14.18 94.47 0 91.18 0 85.15-10.5 83.19-7.89ZM102.23 0.29L102.23 0.29Q99.5 0.29 98.12-0.93 96.74-2.15 96.74-4.96L96.74-4.96 96.74-23.75 99.87-23.75 99.87-4.69Q99.87-3.49 100.62-2.93 101.38-2.37 103.09-2.37L103.09-2.37Q104.82-2.37 106.13-2.95 107.43-3.54 108.04-4.59L108.04-4.59 108.04-23.75 111.22-23.75 111.22 0 108.04 0 108.04-2.25 107.38-2.25Q105.77 0.29 102.23 0.29ZM118.93-19.19L118.93 0 115.78 0 115.78-23.75 118.93-23.75 118.93-21.53 119.54-21.53Q120.37-22.83 121.48-23.45 122.59-24.07 124.55-24.07L124.55-24.07Q128.48-24.07 129.38-21.34L129.38-21.34 130.04-21.34Q130.84-22.61 132.09-23.34 133.33-24.07 135.29-24.07L135.29-24.07Q137.9-24.07 139.19-22.86 140.49-21.66 140.49-18.82L140.49-18.82 140.49 0 137.36 0 137.36-19.09Q137.31-20.31 136.61-20.86 135.9-21.41 134.26-21.41L134.26-21.41Q131.02-21.41 129.75-19.12L129.75-19.12 129.75 0 126.62 0 126.62-19.09Q126.57-20.31 125.86-20.86 125.16-21.41 123.57-21.41L123.57-21.41Q120.1-21.41 118.93-19.19L118.93-19.19ZM150.45 0.27L150.45 0.27Q147.47 0.27 146.04-0.9 144.61-2.08 144.37-4.57L144.37-4.57Q144.34-5.05 144.31-5.54 144.27-6.03 144.32-6.49L144.32-6.49Q144.49-8.67 145.69-10.14 146.88-11.62 150.23-12.84L150.23-12.84Q151.59-13.33 153.11-13.72 154.62-14.11 156.11-14.48L156.11-14.48 156.11-18.99Q156.11-20.19 155.21-20.76 154.3-21.34 152.06-21.34L152.06-21.34Q150.1-21.34 149.09-20.85 148.08-20.36 147.98-19.07L147.98-19.07Q147.93-18.46 147.93-17.32 147.93-16.19 147.98-15.41L147.98-15.41 144.93-15.41Q144.88-16.02 144.83-16.99 144.78-17.97 144.86-18.73L144.86-18.73Q144.98-21.56 146.7-22.81 148.42-24.07 152.18-24.07L152.18-24.07Q156.11-24.07 157.64-22.71 159.16-21.34 159.19-18.21L159.19-18.21 159.19 0 156.11 0 156.11-2.25 155.43-2.25Q154.82-1.03 153.68-0.38 152.55 0.27 150.45 0.27ZM151.23-2.37L151.23-2.37Q154.74-2.37 156.09-4.47L156.09-4.47 156.09-11.87Q154.91-11.62 153.68-11.29 152.45-10.96 150.79-10.4L150.79-10.4Q148.81-9.67 148.15-8.72 147.49-7.76 147.39-6.49L147.39-6.49Q147.42-6.13 147.43-5.7 147.44-5.27 147.49-4.81L147.49-4.81Q147.66-3.64 148.66-3 149.67-2.37 151.23-2.37ZM166.9-19.19L166.9 0 163.75 0 163.75-23.75 166.9-23.75 166.9-21.53 167.58-21.53Q168.22-22.75 169.27-23.41 170.32-24.07 171.88-24.07L171.88-24.07Q174.22-24.07 175.36-22.84 176.49-21.61 176.49-18.58L176.49-18.58Q176.49-17.92 176.44-17.02 176.4-16.11 176.3-15.41L176.3-15.41 173.27-15.41Q173.32-15.65 173.33-16.26 173.34-16.87 173.36-17.48 173.37-18.09 173.37-18.31L173.37-18.31Q173.37-20.12 172.76-20.76 172.15-21.41 170.81-21.41L170.81-21.41Q167.95-21.41 166.9-19.19L166.9-19.19ZM193.36-13.21L193.36 0 189.97 0 189.97-34.86 198.19-34.86Q202.61-34.86 204.64-33.45 206.66-32.03 206.88-28.76L206.88-28.76Q207.13-26.03 207.13-23.83 207.13-21.63 206.88-19.31L206.88-19.31Q206.66-16.06 204.63-14.64 202.59-13.21 198.1-13.21L198.1-13.21 193.36-13.21ZM198.19-31.74L193.36-31.74 193.36-16.33 198.1-16.33Q200.93-16.33 202.16-17.03 203.39-17.72 203.52-19.17L203.52-19.17Q203.88-24.02 203.52-28.93L203.52-28.93Q203.39-30.37 202.17-31.05 200.95-31.74 198.19-31.74L198.19-31.74ZM216.04 0.27L216.04 0.27Q213.06 0.27 211.63-0.9 210.2-2.08 209.96-4.57L209.96-4.57Q209.93-5.05 209.9-5.54 209.86-6.03 209.91-6.49L209.91-6.49Q210.08-8.67 211.28-10.14 212.47-11.62 215.82-12.84L215.82-12.84Q217.18-13.33 218.7-13.72 220.21-14.11 221.7-14.48L221.7-14.48 221.7-18.99Q221.7-20.19 220.8-20.76 219.89-21.34 217.65-21.34L217.65-21.34Q215.7-21.34 214.68-20.85 213.67-20.36 213.57-19.07L213.57-19.07Q213.52-18.46 213.52-17.32 213.52-16.19 213.57-15.41L213.57-15.41 210.52-15.41Q210.47-16.02 210.42-16.99 210.37-17.97 210.45-18.73L210.45-18.73Q210.57-21.56 212.29-22.81 214.01-24.07 217.77-24.07L217.77-24.07Q221.7-24.07 223.23-22.71 224.75-21.34 224.78-18.21L224.78-18.21 224.78 0 221.7 0 221.7-2.25 221.02-2.25Q220.41-1.03 219.27-0.38 218.14 0.27 216.04 0.27ZM216.82-2.37L216.82-2.37Q220.33-2.37 221.68-4.47L221.68-4.47 221.68-11.87Q220.5-11.62 219.27-11.29 218.04-10.96 216.38-10.4L216.38-10.4Q214.4-9.67 213.74-8.72 213.08-7.76 212.99-6.49L212.99-6.49Q213.01-6.13 213.02-5.7 213.03-5.27 213.08-4.81L213.08-4.81Q213.25-3.64 214.25-3 215.26-2.37 216.82-2.37ZM232.49-19.19L232.49 0 229.34 0 229.34-23.75 232.49-23.75 232.49-21.53 233.17-21.53Q233.81-22.75 234.86-23.41 235.91-24.07 237.47-24.07L237.47-24.07Q239.81-24.07 240.95-22.84 242.08-21.61 242.08-18.58L242.08-18.58Q242.08-17.92 242.04-17.02 241.99-16.11 241.89-15.41L241.89-15.41 238.86-15.41Q238.91-15.65 238.92-16.26 238.93-16.87 238.95-17.48 238.96-18.09 238.96-18.31L238.96-18.31Q238.96-20.12 238.35-20.76 237.74-21.41 236.4-21.41L236.4-21.41Q233.54-21.41 232.49-19.19L232.49-19.19ZM253.17 0.29L253.17 0.29Q249.14 0.29 247.42-0.98 245.7-2.25 245.57-5.13L245.57-5.13Q245.48-6.93 245.44-9.38 245.4-11.82 245.44-14.28 245.48-16.75 245.57-18.58L245.57-18.58Q245.7-21.53 247.47-22.8 249.24-24.07 253.17-24.07L253.17-24.07Q256.88-24.07 258.54-22.83 260.2-21.58 260.37-18.73L260.37-18.73Q260.42-17.87 260.47-15.75 260.51-13.62 260.32-11.23L260.32-11.23 248.62-11.23Q248.62-9.69 248.65-8.11 248.67-6.52 248.75-4.81L248.75-4.81Q248.77-3.47 249.77-2.95 250.77-2.44 253.07-2.44L253.07-2.44Q255.34-2.44 256.27-2.95 257.19-3.47 257.29-4.81L257.29-4.81Q257.36-6.15 257.29-8.47L257.29-8.47 260.32-8.47Q260.44-7.76 260.43-6.82 260.42-5.88 260.37-5.13L260.37-5.13Q260.2-2.25 258.62-0.98 257.05 0.29 253.17 0.29ZM248.62-13.82L248.62-13.82 257.34-13.82Q257.39-15.48 257.39-16.99 257.39-18.51 257.29-19.07L257.29-19.07Q257.19-20.29 256.24-20.81 255.29-21.34 253.17-21.34L253.17-21.34Q250.8-21.34 249.78-20.81 248.77-20.29 248.75-19.07L248.75-19.07Q248.67-17.65 248.64-16.36 248.6-15.06 248.62-13.82ZM268.74-31.69L268.74-28.17 265.59-28.17 265.59-31.69 268.74-31.69ZM262.71 8.18L262.71 8.18Q262.05 8.18 261.22 8.11 260.39 8.03 259.8 7.93L259.8 7.93 259.8 5.25Q261.02 5.37 262.64 5.37L262.64 5.37Q264.22 5.37 264.91 4.82 265.59 4.27 265.59 3L265.59 3 265.59-23.75 268.74-23.75 268.74 2.76Q268.74 5.64 267.32 6.91 265.91 8.18 262.71 8.18ZM277.14-31.69L277.14-28.17 273.99-28.17 273.99-31.69 277.14-31.69ZM277.14-23.75L277.14 0 273.96 0 273.96-23.75 277.14-23.75ZM284.48 8.13L284.48 8.13Q283.7 8.13 282.61 8.06 281.53 7.98 280.82 7.91L280.82 7.91 280.82 5.2Q282.33 5.32 284.38 5.32L284.38 5.32Q286.56 5.32 287.33 4.8 288.09 4.27 288.36 2.95L288.36 2.95 289.07 0 285.78 0 281.38-23.75 284.6-23.75 286.24-12.43 288.12-2.71 289.61-2.71 291.61-12.43 293.34-23.75 296.59-23.75 291.46 2.71Q291 5.59 289.51 6.86 288.02 8.13 284.48 8.13ZM305.16 0.27L305.16 0.27Q302.18 0.27 300.75-0.9 299.32-2.08 299.08-4.57L299.08-4.57Q299.05-5.05 299.02-5.54 298.98-6.03 299.03-6.49L299.03-6.49Q299.2-8.67 300.4-10.14 301.59-11.62 304.94-12.84L304.94-12.84Q306.31-13.33 307.82-13.72 309.33-14.11 310.82-14.48L310.82-14.48 310.82-18.99Q310.82-20.19 309.92-20.76 309.02-21.34 306.77-21.34L306.77-21.34Q304.82-21.34 303.8-20.85 302.79-20.36 302.69-19.07L302.69-19.07Q302.64-18.46 302.64-17.32 302.64-16.19 302.69-15.41L302.69-15.41 299.64-15.41Q299.59-16.02 299.54-16.99 299.49-17.97 299.57-18.73L299.57-18.73Q299.69-21.56 301.41-22.81 303.13-24.07 306.89-24.07L306.89-24.07Q310.82-24.07 312.35-22.71 313.87-21.34 313.9-18.21L313.9-18.21 313.9 0 310.82 0 310.82-2.25 310.14-2.25Q309.53-1.03 308.39-0.38 307.26 0.27 305.16 0.27ZM305.94-2.37L305.94-2.37Q309.45-2.37 310.8-4.47L310.8-4.47 310.8-11.87Q309.63-11.62 308.39-11.29 307.16-10.96 305.5-10.4L305.5-10.4Q303.52-9.67 302.86-8.72 302.2-7.76 302.11-6.49L302.11-6.49Q302.13-6.13 302.14-5.7 302.15-5.27 302.2-4.81L302.2-4.81Q302.37-3.64 303.38-3 304.38-2.37 305.94-2.37Z" opacity="1" transform="matrix(1,0,0,1,0,0)" fill="#046d00" class="wordmark-text-0" data-fill-palette-color="primary" id="text-0"></path></svg></g></svg></g></svg></g></svg></g><g transform="matrix(1,0,0,1,158.13217768985902,0)"><svg viewBox="0 0 79.25564462028193 75.48139988407614" height="75.48139988407614" width="79.25564462028193"><g><svg xmlns:x="http://ns.adobe.com/Extensibility/1.0/" xmlns:i="http://ns.adobe.com/AdobeIllustrator/10.0/" xmlns:graph="http://ns.adobe.com/Graphs/1.0/" xmlns="http://www.w3.org/2000/svg" xmlns:xlink="http://www.w3.org/1999/xlink" version="1.1" x="0" y="0" viewBox="0.4897819238035984 2.9 98.9102180761964 94.19999999999999" enable-background="new 0 0 100 100" xml:space="preserve" height="75.48139988407614" width="79.25564462028193" class="icon-icon-0" data-fill-palette-color="accent" id="icon-0"><path d="M50 2.9C45.9 2.9 42 3.7 38.2 5.3 22.5 11.7 15 29.8 21.5 45.5 26.3 57.1 37.5 64.6 50 64.6 54.1 64.6 58 63.8 61.8 62.2 77.5 55.7 85 37.7 78.5 21.9 73.7 10.4 62.5 2.9 50 2.9M25.5 42.1C23.6 36.7 23.6 30.9 25.5 25.4H32.1C31.6 28.1 31.3 31 31.3 33.7 31.3 36.3 31.6 39.1 32.3 42H25.5zM36.3 33.7C36.3 30.8 36.6 28 37.2 25.4H47.5V42.1H37.4C36.7 39.3 36.3 36.4 36.3 33.7M52.5 9.2C56 10.6 59.2 14.9 61.3 20.4H52.5zM47.5 9.2V20.4H38.7C40.8 14.9 44 10.6 47.5 9.2M47.5 47.1V58.2C44.2 56.7 41.1 52.3 39 47.1zM52.5 58.2V47.1H61C58.9 52.3 55.8 56.7 52.5 58.2M52.5 42.1V25.4H62.8C63.4 28.1 63.7 30.9 63.7 33.7 63.7 36.4 63.3 39.2 62.6 42H52.5zM67.9 25.4H74.5C76.4 31 76.3 36.8 74.5 42.1H67.7C68.4 39.2 68.7 36.3 68.7 33.8 68.7 31 68.4 28.1 67.9 25.4M72.2 20.4H66.6C65.5 16.8 63.9 13.5 61.9 10.8 66.1 13 69.7 16.3 72.2 20.4M38.1 10.8C36.2 13.5 34.6 16.8 33.4 20.4H27.9C30.3 16.3 33.8 13 38.1 10.8M27.8 47.1H33.7C35 50.8 36.7 54.3 38.9 57.2 34.4 55 30.5 51.5 27.8 47.1M61.1 57.1C63.2 54.2 65 50.7 66.2 47.1H72.1C69.6 51.3 65.8 54.9 61.1 57.1M9.7 97.1C12.4 97.1 15 95.9 16.8 93.8 17.6 92.8 18.2 91.7 18.6 90.4H41.2C42.3 94.3 45.8 97.1 50 97.1S57.7 94.3 58.8 90.4H81.4C82.5 94.3 86 97.1 90.2 97.1 95.3 97.1 99.4 93 99.4 87.9S95.3 78.7 90.2 78.7C86 78.7 82.5 81.5 81.4 85.4H58.8C57.9 82.3 55.5 79.9 52.5 79.1V72.2C52.5 70.8 51.4 69.7 50 69.7S47.5 70.8 47.5 72.2V79.1C44.4 80 42 82.4 41.2 85.4H18.5C17.6 82.1 14.8 79.5 11.5 78.9S4.8 79.5 2.6 82.1C0.8 84.2 0.1 87 0.7 89.7 1.4 93.3 4.3 96.3 7.9 96.9 8.5 97.1 9.1 97.1 9.7 97.1M90.3 83.7C92.6 83.7 94.5 85.6 94.5 87.9S92.6 92.1 90.3 92.1C88.1 92.1 86.3 90.4 86.1 88.2V87.6C86.3 85.5 88.1 83.7 90.3 83.7M50 83.7C52.3 83.7 54.2 85.6 54.2 87.9S52.3 92.1 50 92.1 45.8 90.2 45.8 87.9 47.7 83.7 50 83.7M5.6 88.8C5.4 87.5 5.7 86.3 6.5 85.3S8.5 83.8 9.7 83.8C10 83.8 10.3 83.8 10.5 83.9 12.1 84.2 13.5 85.5 13.8 87.2 14 88.5 13.7 89.7 12.9 90.7 11.9 91.9 10.4 92.4 8.8 92.1 7.2 91.7 5.9 90.4 5.6 88.8" fill="#217027" data-fill-palette-color="accent"></path></svg><g></g></g></svg></g><g></g></svg></g><defs></defs></svg><rect width="395.52" height="142.99279412655753" fill="none" stroke="none" visibility="hidden"></rect></g></svg></g></svg>