<svg xmlns="http://www.w3.org/2000/svg" xmlns:xlink="http://www.w3.org/1999/xlink" width="500" zoomAndPan="magnify" viewBox="0 0 375 374.999991" height="500" preserveAspectRatio="xMidYMid meet" version="1.0"><defs><g/><clipPath id="03199babc2"><path d="M 126.273438 65.746094 L 249.273438 65.746094 L 249.273438 215.746094 L 126.273438 215.746094 Z M 126.273438 65.746094 " clip-rule="nonzero"/></clipPath></defs><rect x="-37.5" width="450" fill="#ffffff" y="-37.499999" height="449.999989" fill-opacity="1"/><rect x="-37.5" width="450" fill="#000000" y="-37.499999" height="449.999989" fill-opacity="1"/><path stroke-linecap="butt" transform="matrix(0.75, 0, 0, 0.75, 127.769732, 243.497122)" fill="none" stroke-linejoin="miter" d="M -0.000267813 1.998629 L 159.999743 1.998629 " stroke="#ffffff" stroke-width="4" stroke-opacity="1" stroke-miterlimit="4"/><g clip-path="url(#03199babc2)"><path fill="#e8ec37" d="M 248.644531 210.742188 L 219.699219 156.082031 C 235.792969 148.601562 245.632812 132.777344 245.632812 113.902344 C 245.632812 84.652344 223.898438 65.746094 190.261719 65.746094 L 129.722656 65.746094 C 127.839844 65.746094 126.3125 67.273438 126.3125 69.15625 L 126.3125 212.339844 C 126.3125 214.21875 127.839844 215.746094 129.722656 215.746094 L 153.585938 215.746094 C 155.46875 215.746094 156.996094 214.21875 156.996094 212.339844 L 156.996094 161.203125 L 187.6875 161.203125 L 215.613281 213.933594 C 216.203125 215.046875 217.363281 215.746094 218.625 215.746094 L 245.632812 215.746094 C 246.828125 215.746094 247.9375 215.121094 248.550781 214.097656 C 249.171875 213.070312 249.203125 211.800781 248.644531 210.742188 Z M 187.761719 137.339844 L 156.996094 137.339844 L 156.996094 89.609375 L 187.132812 89.609375 C 204.414062 89.609375 214.949219 98.703125 214.949219 113.527344 C 214.949219 128.640625 205.046875 137.339844 187.761719 137.339844 Z M 187.761719 137.339844 " fill-opacity="1" fill-rule="nonzero"/></g><g fill="#ffffff" fill-opacity="1"><g transform="translate(157.128246, 305.036903)"><g><path d="M 2.71875 -7.640625 C 4.101562 -7.640625 5.148438 -7.316406 5.859375 -6.671875 C 6.578125 -6.035156 6.9375 -5.085938 6.9375 -3.828125 C 6.9375 -2.484375 6.578125 -1.507812 5.859375 -0.90625 C 5.148438 -0.300781 4.109375 0 2.734375 0 L 0.875 0 L 0.875 -7.640625 Z M 2.984375 -1.421875 C 3.785156 -1.421875 4.398438 -1.617188 4.828125 -2.015625 C 5.253906 -2.421875 5.46875 -3.035156 5.46875 -3.859375 C 5.46875 -4.367188 5.359375 -4.796875 5.140625 -5.140625 C 4.929688 -5.492188 4.628906 -5.757812 4.234375 -5.9375 C 3.835938 -6.125 3.363281 -6.21875 2.8125 -6.21875 L 2.328125 -6.21875 L 2.328125 -1.421875 Z M 2.984375 -1.421875 "/></g></g></g><g fill="#ffffff" fill-opacity="1"><g transform="translate(165.079165, 305.036903)"><g><path d="M 0.875 -7.640625 L 5.046875 -7.640625 L 5.046875 -6.21875 L 2.328125 -6.21875 L 2.328125 -4.828125 L 5.046875 -4.828125 L 5.046875 -3.453125 L 2.328125 -3.453125 L 2.328125 -1.421875 L 5.046875 -1.421875 L 5.046875 0 L 0.875 0 Z M 0.875 -7.640625 "/></g></g></g><g fill="#ffffff" fill-opacity="1"><g transform="translate(171.127516, 305.036903)"><g><path d="M 0.28125 -7.640625 L 1.78125 -7.640625 L 3.703125 -2.21875 L 5.65625 -7.640625 L 7.15625 -7.640625 L 4.390625 0 L 3 0 Z M 0.28125 -7.640625 "/></g></g></g><g fill="#ffffff" fill-opacity="1"><g transform="translate(179.099699, 305.036903)"><g><path d="M 0.875 -7.640625 L 5.046875 -7.640625 L 5.046875 -6.21875 L 2.328125 -6.21875 L 2.328125 -4.828125 L 5.046875 -4.828125 L 5.046875 -3.453125 L 2.328125 -3.453125 L 2.328125 -1.421875 L 5.046875 -1.421875 L 5.046875 0 L 0.875 0 Z M 0.875 -7.640625 "/></g></g></g><g fill="#ffffff" fill-opacity="1"><g transform="translate(185.14805, 305.036903)"><g><path d="M 2.328125 -7.640625 L 2.328125 -1.390625 L 4.453125 -1.390625 L 4.453125 0 L 0.875 0 L 0.875 -7.640625 Z M 2.328125 -7.640625 "/></g></g></g><g fill="#ffffff" fill-opacity="1"><g transform="translate(190.356725, 305.036903)"><g><path d="M 4.5 0.1875 C 3.757812 0.1875 3.082031 0.0078125 2.46875 -0.34375 C 1.851562 -0.707031 1.367188 -1.195312 1.015625 -1.8125 C 0.671875 -2.425781 0.5 -3.097656 0.5 -3.828125 C 0.5 -4.566406 0.675781 -5.242188 1.03125 -5.859375 C 1.394531 -6.472656 1.878906 -6.953125 2.484375 -7.296875 C 3.097656 -7.648438 3.765625 -7.828125 4.484375 -7.828125 C 5.179688 -7.828125 5.832031 -7.648438 6.4375 -7.296875 C 7.050781 -6.953125 7.539062 -6.472656 7.90625 -5.859375 C 8.269531 -5.242188 8.453125 -4.554688 8.453125 -3.796875 C 8.453125 -3.054688 8.273438 -2.382812 7.921875 -1.78125 C 7.566406 -1.175781 7.085938 -0.695312 6.484375 -0.34375 C 5.890625 0.0078125 5.226562 0.1875 4.5 0.1875 Z M 4.484375 -1.21875 C 4.941406 -1.21875 5.359375 -1.332031 5.734375 -1.5625 C 6.117188 -1.789062 6.421875 -2.101562 6.640625 -2.5 C 6.867188 -2.894531 6.984375 -3.332031 6.984375 -3.8125 C 6.984375 -4.28125 6.875 -4.710938 6.65625 -5.109375 C 6.4375 -5.515625 6.132812 -5.835938 5.75 -6.078125 C 5.375 -6.316406 4.945312 -6.4375 4.46875 -6.4375 C 4.007812 -6.4375 3.585938 -6.320312 3.203125 -6.09375 C 2.828125 -5.875 2.523438 -5.5625 2.296875 -5.15625 C 2.078125 -4.757812 1.96875 -4.304688 1.96875 -3.796875 C 1.96875 -3.296875 2.082031 -2.847656 2.3125 -2.453125 C 2.539062 -2.054688 2.847656 -1.75 3.234375 -1.53125 C 3.617188 -1.320312 4.035156 -1.21875 4.484375 -1.21875 Z M 4.484375 -1.21875 "/></g></g></g><g fill="#ffffff" fill-opacity="1"><g transform="translate(199.816948, 305.036903)"><g><path d="M 2.78125 -7.640625 C 3.625 -7.640625 4.273438 -7.457031 4.734375 -7.09375 C 5.191406 -6.726562 5.421875 -6.171875 5.421875 -5.421875 C 5.421875 -4.960938 5.3125 -4.566406 5.09375 -4.234375 C 4.882812 -3.910156 4.582031 -3.660156 4.1875 -3.484375 C 3.800781 -3.316406 3.359375 -3.234375 2.859375 -3.234375 L 2.328125 -3.234375 L 2.328125 0 L 0.875 0 L 0.875 -7.640625 Z M 3.015625 -4.65625 C 3.671875 -4.65625 4 -4.910156 4 -5.421875 C 4 -5.679688 3.910156 -5.878906 3.734375 -6.015625 C 3.554688 -6.148438 3.296875 -6.21875 2.953125 -6.21875 L 2.328125 -6.21875 L 2.328125 -4.65625 Z M 3.015625 -4.65625 "/></g></g></g><g fill="#ffffff" fill-opacity="1"><g transform="translate(206.088505, 305.036903)"><g><path d="M 0.875 -7.640625 L 5.046875 -7.640625 L 5.046875 -6.21875 L 2.328125 -6.21875 L 2.328125 -4.828125 L 5.046875 -4.828125 L 5.046875 -3.453125 L 2.328125 -3.453125 L 2.328125 -1.421875 L 5.046875 -1.421875 L 5.046875 0 L 0.875 0 Z M 0.875 -7.640625 "/></g></g></g><g fill="#ffffff" fill-opacity="1"><g transform="translate(212.136856, 305.036903)"><g><path d="M 2.828125 -7.640625 C 3.640625 -7.640625 4.273438 -7.453125 4.734375 -7.078125 C 5.191406 -6.703125 5.421875 -6.148438 5.421875 -5.421875 C 5.421875 -4.929688 5.296875 -4.515625 5.046875 -4.171875 C 4.804688 -3.828125 4.441406 -3.566406 3.953125 -3.390625 L 5.765625 0 L 4.1875 0 L 2.46875 -3.234375 L 2.328125 -3.234375 L 2.328125 0 L 0.875 0 L 0.875 -7.640625 Z M 3 -4.65625 C 3.332031 -4.65625 3.582031 -4.71875 3.75 -4.84375 C 3.914062 -4.976562 4 -5.175781 4 -5.4375 C 4 -5.695312 3.910156 -5.890625 3.734375 -6.015625 C 3.554688 -6.148438 3.296875 -6.21875 2.953125 -6.21875 L 2.328125 -6.21875 L 2.328125 -4.65625 Z M 3 -4.65625 "/></g></g></g><g fill="#e8ec37" fill-opacity="1"><g transform="translate(149.796587, 284.339425)"><g><path d="M 4.140625 -11.15625 C 5.328125 -11.15625 6.253906 -10.882812 6.921875 -10.34375 C 7.585938 -9.800781 7.921875 -8.992188 7.921875 -7.921875 C 7.921875 -7.203125 7.738281 -6.59375 7.375 -6.09375 C 7.019531 -5.59375 6.488281 -5.210938 5.78125 -4.953125 L 8.421875 0 L 6.109375 0 L 3.609375 -4.71875 L 3.40625 -4.71875 L 3.40625 0 L 1.28125 0 L 1.28125 -11.15625 Z M 4.390625 -6.796875 C 4.867188 -6.796875 5.226562 -6.890625 5.46875 -7.078125 C 5.71875 -7.273438 5.84375 -7.5625 5.84375 -7.9375 C 5.84375 -8.3125 5.710938 -8.59375 5.453125 -8.78125 C 5.191406 -8.976562 4.816406 -9.078125 4.328125 -9.078125 L 3.40625 -9.078125 L 3.40625 -6.796875 Z M 4.390625 -6.796875 "/></g></g></g><g fill="#e8ec37" fill-opacity="1"><g transform="translate(171.112579, 284.339425)"><g><path d="M 6.578125 0.265625 C 5.484375 0.265625 4.488281 0.00390625 3.59375 -0.515625 C 2.707031 -1.046875 2.007812 -1.757812 1.5 -2.65625 C 0.988281 -3.550781 0.734375 -4.53125 0.734375 -5.59375 C 0.734375 -6.675781 0.992188 -7.664062 1.515625 -8.5625 C 2.035156 -9.457031 2.738281 -10.160156 3.625 -10.671875 C 4.519531 -11.179688 5.492188 -11.4375 6.546875 -11.4375 C 7.566406 -11.4375 8.519531 -11.179688 9.40625 -10.671875 C 10.300781 -10.160156 11.015625 -9.457031 11.546875 -8.5625 C 12.078125 -7.664062 12.34375 -6.660156 12.34375 -5.546875 C 12.34375 -4.472656 12.085938 -3.492188 11.578125 -2.609375 C 11.066406 -1.722656 10.367188 -1.019531 9.484375 -0.5 C 8.597656 0.0078125 7.628906 0.265625 6.578125 0.265625 Z M 6.5625 -1.765625 C 7.226562 -1.765625 7.835938 -1.929688 8.390625 -2.265625 C 8.941406 -2.609375 9.378906 -3.070312 9.703125 -3.65625 C 10.035156 -4.238281 10.203125 -4.875 10.203125 -5.5625 C 10.203125 -6.25 10.039062 -6.882812 9.71875 -7.46875 C 9.40625 -8.050781 8.96875 -8.519531 8.40625 -8.875 C 7.851562 -9.226562 7.226562 -9.40625 6.53125 -9.40625 C 5.863281 -9.40625 5.25 -9.238281 4.6875 -8.90625 C 4.132812 -8.582031 3.691406 -8.128906 3.359375 -7.546875 C 3.035156 -6.960938 2.875 -6.296875 2.875 -5.546875 C 2.875 -4.816406 3.039062 -4.160156 3.375 -3.578125 C 3.71875 -3.003906 4.164062 -2.554688 4.71875 -2.234375 C 5.28125 -1.921875 5.894531 -1.765625 6.5625 -1.765625 Z M 6.5625 -1.765625 "/></g></g></g><g fill="#e8ec37" fill-opacity="1"><g transform="translate(196.608595, 284.339425)"><g><path d="M 4.0625 0.28125 C 3.25 0.28125 2.550781 0.0820312 1.96875 -0.3125 C 1.382812 -0.71875 0.882812 -1.328125 0.46875 -2.140625 L 2.25 -3.21875 C 2.507812 -2.726562 2.789062 -2.359375 3.09375 -2.109375 C 3.394531 -1.867188 3.734375 -1.75 4.109375 -1.75 C 4.347656 -1.75 4.5625 -1.796875 4.75 -1.890625 C 4.945312 -1.984375 5.101562 -2.109375 5.21875 -2.265625 C 5.332031 -2.429688 5.390625 -2.609375 5.390625 -2.796875 C 5.390625 -2.992188 5.347656 -3.171875 5.265625 -3.328125 C 5.191406 -3.484375 5.082031 -3.632812 4.9375 -3.78125 C 4.789062 -3.9375 4.578125 -4.132812 4.296875 -4.375 C 3.441406 -5.082031 2.800781 -5.640625 2.375 -6.046875 C 1.945312 -6.453125 1.609375 -6.863281 1.359375 -7.28125 C 1.117188 -7.695312 1 -8.144531 1 -8.625 C 1 -9.144531 1.132812 -9.617188 1.40625 -10.046875 C 1.675781 -10.484375 2.046875 -10.820312 2.515625 -11.0625 C 2.992188 -11.3125 3.507812 -11.4375 4.0625 -11.4375 C 4.707031 -11.4375 5.28125 -11.285156 5.78125 -10.984375 C 6.289062 -10.679688 6.796875 -10.238281 7.296875 -9.65625 L 5.75 -8.34375 C 5.4375 -8.695312 5.144531 -8.960938 4.875 -9.140625 C 4.601562 -9.316406 4.320312 -9.40625 4.03125 -9.40625 C 3.75 -9.40625 3.519531 -9.332031 3.34375 -9.1875 C 3.164062 -9.039062 3.078125 -8.851562 3.078125 -8.625 C 3.078125 -8.457031 3.128906 -8.296875 3.234375 -8.140625 C 3.347656 -7.984375 3.519531 -7.800781 3.75 -7.59375 C 3.988281 -7.394531 4.367188 -7.082031 4.890625 -6.65625 C 5.523438 -6.144531 6.007812 -5.722656 6.34375 -5.390625 C 6.6875 -5.054688 6.960938 -4.6875 7.171875 -4.28125 C 7.378906 -3.875 7.484375 -3.410156 7.484375 -2.890625 C 7.484375 -2.273438 7.335938 -1.726562 7.046875 -1.25 C 6.753906 -0.769531 6.347656 -0.394531 5.828125 -0.125 C 5.304688 0.144531 4.71875 0.28125 4.0625 0.28125 Z M 4.0625 0.28125 "/></g></g></g><g fill="#e8ec37" fill-opacity="1"><g transform="translate(217.132096, 284.339425)"><g><path d="M 1.28125 -11.15625 L 7.375 -11.15625 L 7.375 -9.09375 L 3.40625 -9.09375 L 3.40625 -7.0625 L 7.375 -7.0625 L 7.375 -5.03125 L 3.40625 -5.03125 L 3.40625 -2.078125 L 7.375 -2.078125 L 7.375 0 L 1.28125 0 Z M 1.28125 -11.15625 "/></g></g></g></svg>